# xmcd
#
# Track frame offsets: 
#        150
#        18462
#        30910
#        53262
#        66925
#        89772
#        102665
#        123687
#        140675
#        164097
#        185835
#
# Disc length: 2735 seconds
#
# Revision: 0
# Processed by: cddbd v1.4PL0 Copyright (c) Steve Scherf et al.
# Submitted via: ExactAudioCopy v0.90b4
#
DISCID=a20aad0b
DTITLE=Chris LeDoux - The Capitol Collection (1990-2000) - Disc 4 (Hay
DTITLE=wire)
DYEAR=1900
DGENRE=Country
TTITLE0=Honky Tonk World
TTITLE1=Dallas Days And Fort Worth Nights
TTITLE2=Tougher Than The Rest
TTITLE3=Big Love
TTITLE4=Love Needs A Fool
TTITLE5=Slow Down
TTITLE6=Sons Of The Pioneers
TTITLE7=Billy The Kid
TTITLE8=Hairtrigger Colt's .44
TTITLE9=Light Of The World
TTITLE10=Six Bucks A Day (Bonus Track)
EXTD=
EXTT0=
EXTT1=
EXTT2=
EXTT3=
EXTT4=
EXTT5=
EXTT6=
EXTT7=
EXTT8=
EXTT9=
EXTT10=
PLAYORDER=
